<svg xmlns="http://www.w3.org/2000/svg" width="800" height="800" viewBox="0 0 800 800">
  <style>
    path {
      fill: #D4D4D8;
    }
  </style>
  <g transform="translate(-560 -490)">
    <g transform="translate(658.677 -10626.932)">
      <path
        d="M532.919,11343.113l-220.645-220.646a15.49,15.49,0,0,0-21.9,0L69.727,11343.113c-63.494,63.494-99.726,151.979-99.408,242.765.315,89.563,34.795,172.717,97.089,234.144a333.2,333.2,0,0,0,467.83,0c62.294-61.427,96.775-144.58,97.089-234.144C632.646,11495.09,596.413,11406.607,532.919,11343.113Zm-222.1,496.622a172.218,172.218,0,0,0,163.347-171.987c0-93.615-74.71-169.726-167.754-172.094q-2.215-.114-4.454-.116a86.054,86.054,0,0,0-8.775,171.665l.986.1a60.269,60.269,0,1,1,7.152.46c-1.745,0-3.46-.117-5.167-.261l1.371.137c-93.054-2.357-167.777-78.474-167.777-172.1q0-4.424.223-8.795c.048-.984.153-1.953.218-2.938.129-1.916.246-3.837.438-5.737.118-1.175.295-2.329.438-3.5.205-1.689.387-3.38.642-5.056.184-1.217.426-2.415.636-3.624.278-1.6.535-3.21.855-4.8.255-1.243.563-2.46.84-3.688.345-1.53.669-3.066,1.056-4.578.319-1.251.693-2.479,1.038-3.717.412-1.472.8-2.949,1.25-4.4.381-1.231.811-2.438,1.217-3.655.478-1.436.938-2.877,1.455-4.295.442-1.219.934-2.419,1.4-3.628.538-1.382,1.061-2.771,1.631-4.137.509-1.208,1.062-2.394,1.594-3.585.6-1.337,1.179-2.681,1.807-4,.567-1.187,1.176-2.344,1.767-3.517.656-1.292,1.295-2.592,1.982-3.865.623-1.156,1.287-2.287,1.935-3.432.714-1.251,1.412-2.511,2.154-3.741.678-1.128,1.4-2.229,2.1-3.338.766-1.208,1.522-2.425,2.318-3.614.733-1.1,1.5-2.161,2.258-3.24.819-1.164,1.629-2.336,2.475-3.479.786-1.063,1.6-2.1,2.415-3.138.869-1.121,1.729-2.244,2.627-3.341.833-1.021,1.7-2.014,2.554-3.015.922-1.081,1.839-2.165,2.788-3.22.879-.977,1.789-1.929,2.69-2.887.969-1.032,1.935-2.068,2.93-3.073.929-.943,1.888-1.854,2.839-2.774,1.014-.981,2.022-1.964,3.06-2.918.977-.9,1.979-1.771,2.973-2.646,1.057-.93,2.111-1.862,3.192-2.761,1.017-.854,2.059-1.679,3.1-2.507,1.1-.879,2.2-1.761,3.32-2.611,1.06-.8,2.141-1.579,3.219-2.362,1.142-.823,2.281-1.647,3.445-2.445,1.1-.755,2.217-1.485,3.337-2.214,1.18-.771,2.359-1.54,3.558-2.283,1.136-.7,2.293-1.377,3.446-2.058,1.22-.714,2.438-1.426,3.675-2.111,1.171-.647,2.359-1.271,3.549-1.895,1.253-.654,2.509-1.311,3.78-1.935,1.207-.594,2.43-1.164,3.652-1.732,1.288-.6,2.577-1.187,3.881-1.754,1.242-.539,2.495-1.05,3.751-1.56,1.316-.536,2.637-1.065,3.972-1.567,1.272-.478,2.556-.936,3.842-1.386,1.348-.47,2.7-.937,4.061-1.373,1.3-.422,2.615-.816,3.93-1.2,1.377-.409,2.756-.806,4.144-1.178,1.331-.358,2.667-.692,4.008-1.018,1.4-.34,2.813-.67,4.23-.975,1.353-.293,2.712-.564,4.075-.824,1.429-.271,2.863-.533,4.305-.767q2.067-.34,4.154-.627c1.449-.2,2.9-.39,4.365-.554q2.1-.237,4.218-.424,2.208-.195,4.436-.337,2.126-.135,4.266-.214c2.225-.085,4.449-.169,6.7-.171,142.662,0,258.313,115.653,258.313,258.313C560.273,11721.335,449.372,11835.053,310.821,11839.735Z"
        fill="currentColor" />
      <rect width="800" height="800" transform="translate(-98.677 11116.932)" fill="none" />
    </g>
  </g>
</svg>