<?xml version="1.0" standalone="no"?>
<!DOCTYPE svg PUBLIC "-//W3C//DTD SVG 20010904//EN"
 "http://www.w3.org/TR/2001/REC-SVG-20010904/DTD/svg10.dtd">
<svg version="1.0" xmlns="http://www.w3.org/2000/svg"
 width="700.000000pt" height="700.000000pt" viewBox="0 0 700.000000 700.000000"
 preserveAspectRatio="xMidYMid meet">
<metadata>
Created by potrace 1.14, written by Peter Selinger 2001-2017
</metadata>
<g transform="translate(0.000000,700.000000) scale(0.100000,-0.100000)"
fill="#000000" stroke="none">
<path d="M3435 6971 c-31 -19 -2048 -2035 -2107 -2106 -18 -22 -40 -48 -49
-58 -9 -10 -47 -60 -85 -112 -248 -341 -416 -704 -510 -1105 -31 -133 -36
-159 -48 -255 -4 -27 -9 -61 -11 -75 -23 -130 -23 -641 0 -713 2 -6 7 -37 10
-67 11 -87 13 -99 24 -148 6 -26 13 -58 15 -72 3 -14 7 -34 9 -45 14 -59 80
-280 97 -320 4 -11 27 -67 51 -125 178 -435 487 -839 867 -1137 294 -229 604
-391 957 -498 123 -37 301 -78 389 -90 27 -3 52 -8 55 -9 31 -19 564 -28 696
-13 151 18 163 20 280 43 417 82 840 273 1190 538 258 196 504 461 677 731
178 278 317 615 382 923 32 151 35 167 42 227 3 28 7 56 9 63 9 25 19 231 19
367 0 177 -11 320 -36 460 -5 33 -12 74 -15 90 -9 64 -67 285 -100 385 -114
344 -287 662 -507 935 -103 128 24 -1 -1136 1160 -558 559 -1027 1023 -1042
1031 -37 19 -87 17 -123 -5z m235 -1785 c58 -3 132 -11 165 -16 33 -6 76 -13
95 -16 75 -12 264 -65 357 -100 303 -112 573 -285 804 -514 134 -132 209 -223
303 -367 246 -375 371 -797 369 -1248 0 -179 -9 -264 -48 -470 -13 -65 -65
-247 -84 -290 -5 -11 -15 -36 -22 -55 -59 -164 -170 -363 -302 -539 -85 -114
-290 -324 -402 -411 -221 -173 -496 -316 -755 -392 -85 -24 -272 -64 -335 -71
l-50 -6 45 11 c605 138 1046 586 1176 1193 11 53 18 138 20 250 3 194 -5 272
-46 428 -80 303 -265 583 -525 793 -62 50 -194 133 -257 162 -110 50 -135 61
-173 73 -22 6 -49 15 -60 20 -124 49 -423 78 -572 55 -197 -30 -407 -176 -514
-356 -109 -184 -135 -424 -68 -623 63 -186 190 -334 366 -429 59 -32 173 -73
173 -63 0 2 -29 17 -65 33 -85 41 -189 143 -232 232 -156 319 28 690 374 753
175 33 338 -18 464 -144 103 -102 157 -229 157 -369 0 -243 -162 -452 -398
-514 -82 -21 -297 -12 -440 19 -369 79 -711 308 -926 620 -87 125 -196 364
-218 475 -2 14 -13 61 -22 105 -26 113 -26 423 -1 548 78 387 294 724 608 950
163 117 415 226 584 253 20 3 47 8 59 10 11 3 66 8 121 11 55 3 101 7 103 8 1
1 17 1 35 -1 17 -1 79 -5 137 -8z"/>
</g>
</svg>
